<?xml version="1.0" encoding="UTF-8" standalone="no"?>
<svg xmlns:xlink="http://www.w3.org/1999/xlink" height="51.55px" width="67.3px" xmlns="http://www.w3.org/2000/svg">
  <g transform="matrix(1.0, 0.0, 0.0, 1.0, 0.0, 0.0)">
    <path d="M62.95 0.0 L56.45 18.25 55.95 19.6 Q54.15 24.4 52.25 28.4 50.3 32.4 46.1 33.65 41.85 34.85 36.65 34.3 31.4 33.7 29.0 32.7 26.6 31.7 25.9 29.35 25.45 26.45 28.25 21.8 L35.75 21.8 Q34.65 24.3 35.1 25.75 36.25 27.55 39.0 27.7 41.7 27.85 43.2 26.2 44.65 24.5 45.65 21.3 L45.7 21.2 45.7 21.1 45.75 21.05 45.75 20.95 45.8 20.9 45.8 20.8 45.85 20.75 45.85 20.65 45.9 20.6 45.9 20.55 45.95 20.5 45.95 20.4 46.0 20.35 46.0 20.25 46.05 20.15 46.05 20.1 46.1 20.0 46.1 19.95 46.15 19.9 46.15 19.85 46.2 19.75 46.2 19.65 46.25 19.55 46.3 19.5 46.3 19.4 46.3 19.35 46.35 19.3 46.35 19.2 46.4 19.15 46.4 19.1 46.45 19.05 46.45 18.95 46.5 18.9 46.5 18.85 46.5 18.75 46.55 18.7 46.55 18.65 46.6 18.55 46.6 18.5 46.65 18.45 46.65 18.4 46.7 18.3 46.7 18.25 46.75 18.15 46.75 18.1 46.8 18.05 46.8 17.95 46.8 17.9 46.85 17.85 46.85 17.75 46.9 17.7 46.9 17.65 46.95 17.6 46.95 17.45 47.0 17.35 47.0 17.3 47.05 17.25 47.05 17.2 47.1 17.1 47.1 17.05 47.15 17.0 47.15 16.95 47.2 16.85 47.2 16.8 47.25 16.7 47.25 16.65 47.3 16.55 47.3 16.45 47.35 16.4 47.35 16.35 47.4 16.25 47.4 16.2 47.45 16.1 47.45 16.0 47.5 15.9 47.5 15.85 47.55 15.8 47.55 15.75 47.6 15.65 47.6 15.6 47.65 15.55 47.65 15.45 47.7 15.4 47.7 15.3 47.75 15.25 47.75 15.2 47.8 15.1 47.8 15.0 47.85 14.95 47.85 14.85 47.9 14.8 47.9 14.75 47.95 14.65 47.95 14.55 48.0 14.45 48.05 14.4 48.05 14.3 48.1 14.2 48.1 14.15 48.15 14.05 48.15 14.0 48.2 13.9 48.2 13.85 48.25 13.8 48.25 13.7 48.3 13.65 48.3 13.55 48.35 13.5 48.35 13.4 48.4 13.35 48.4 13.25 48.45 13.2 48.45 13.15 48.5 13.1 48.5 13.0 48.55 12.95 48.55 12.9 48.55 12.8 48.6 12.75 48.6 12.65 48.65 12.6 48.65 12.55 48.7 12.5 48.7 12.45 48.75 12.35 48.75 12.25 48.8 12.15 48.8 12.1 48.85 12.0 48.85 11.95 48.9 11.9 48.9 11.8 48.95 11.75 48.95 11.7 49.0 11.65 49.0 11.55 49.05 11.5 49.05 11.35 49.1 11.3 49.1 11.2 49.15 11.15 49.15 11.1 49.2 11.05 49.2 11.0 49.25 10.9 49.25 10.75 49.3 10.7 49.3 10.6 49.35 10.55 49.35 10.5 49.4 10.45 49.4 10.35 49.45 10.3 49.45 10.25 49.5 10.2 49.5 10.1 49.55 10.05 49.55 9.9 49.6 9.85 49.6 9.8 49.65 9.7 49.65 9.65 49.7 9.6 49.7 9.5 49.75 9.45 49.75 9.35 49.8 9.3 49.8 9.25 49.85 9.15 49.85 9.05 49.9 9.0 49.9 8.9 49.95 8.85 49.95 8.8 50.0 8.7 50.0 8.6 50.05 8.5 50.05 8.45 50.1 8.4 50.1 8.35 50.15 8.25 50.15 8.2 50.2 8.1 50.2 8.05 50.25 8.0 50.25 7.9 50.3 7.85 50.3 7.8 50.35 7.7 50.35 7.6 50.4 7.55 50.4 7.45 50.45 7.4 50.45 7.3 50.5 7.25 50.5 7.15 50.55 7.05 50.55 7.0 50.6 6.95 50.6 6.9 50.65 6.8 50.65 6.75 50.7 6.65 50.7 6.6 50.75 6.5 50.75 6.45 50.8 6.4 50.8 6.35 50.85 6.25 50.85 6.15 50.9 6.05 50.9 6.0 50.95 5.95 50.95 5.85 51.0 5.8 51.0 5.7 51.05 5.6 51.05 5.55 51.1 5.5 51.1 5.4 51.15 5.35 51.15 5.25 51.2 5.2 51.2 5.15 51.25 5.05 51.25 5.0 51.3 4.95 51.3 4.8 51.35 4.75 51.35 4.65 51.4 4.6 51.4 4.55 51.45 4.5 51.45 4.4 51.5 4.35 51.5 4.3 51.55 4.25 51.55 4.15 51.6 4.1 51.6 3.95 51.65 3.85 51.65 3.8 51.7 3.75 51.7 3.7 51.75 3.65 51.75 3.55 51.8 3.5 51.8 3.35 51.85 3.3 51.85 3.2 51.9 3.15 51.9 3.1 51.95 3.05 51.95 2.95 52.0 2.9 52.0 2.85 52.05 2.75 52.05 2.7 52.1 2.6 52.1 2.5 52.15 2.4 52.15 2.35 52.2 2.3 52.2 2.25 52.25 2.2 52.25 2.1 52.3 2.05 52.3 1.95 52.3 1.9 52.35 1.85 52.35 1.75 52.4 1.7 52.4 1.65 52.45 1.6 52.45 1.5 52.5 1.45 52.5 1.35 52.55 1.3 52.55 1.25 52.6 1.15 52.6 1.05 52.65 1.0 52.65 0.95 52.7 0.85 52.7 0.8 52.75 0.7 52.75 0.65 52.8 0.55 52.8 0.45 52.85 0.4 52.9 0.3 52.9 0.2 52.95 0.1 52.95 0.05 53.0 0.0 62.95 0.0 M20.05 0.0 L43.25 0.0 43.2 0.05 43.2 0.15 43.15 0.25 43.15 0.3 43.1 0.35 43.1 0.45 43.05 0.5 43.05 0.6 43.0 0.65 43.0 0.7 42.95 0.75 42.95 0.85 42.9 0.9 42.9 0.95 42.9 1.05 42.85 1.1 42.85 1.2 42.8 1.25 42.8 1.3 42.75 1.35 42.75 1.4 42.7 1.5 42.7 1.6 42.65 1.7 42.65 1.75 42.6 1.85 42.6 1.9 42.55 1.95 42.55 2.05 42.5 2.1 42.5 2.15 42.45 2.2 42.45 2.3 42.4 2.35 42.4 2.5 42.35 2.55 42.35 2.65 42.3 2.7 42.3 2.75 42.25 2.8 42.25 2.85 42.2 2.95 42.2 3.1 42.15 3.15 42.15 3.25 42.1 3.3 42.1 3.35 42.05 3.4 42.05 3.5 42.0 3.55 42.0 3.6 41.95 3.65 41.95 3.75 41.9 3.8 41.9 3.95 41.85 4.0 41.85 4.05 41.8 4.15 41.8 4.2 41.75 4.25 41.75 4.35 41.7 4.4 41.7 4.5 41.65 4.55 41.65 4.6 41.6 4.7 41.6 4.8 41.55 4.85 41.55 4.95 41.5 5.0 41.5 5.05 41.45 5.15 41.45 5.25 41.4 5.35 41.4 5.4 41.35 5.45 41.35 5.5 41.3 5.6 41.3 5.65 41.25 5.75 41.25 5.8 41.2 5.9 41.2 5.95 41.15 6.0 41.15 6.05 41.1 6.15 41.1 6.25 41.05 6.3 41.05 6.4 41.0 6.45 41.0 6.55 40.95 6.6 40.95 6.7 40.9 6.8 40.9 6.85 40.85 6.9 40.85 7.0 40.8 7.05 40.8 7.1 40.75 7.2 40.75 7.25 28.5 7.25 26.45 13.1 38.75 13.1 38.7 13.15 38.7 13.2 38.65 13.3 38.65 13.4 38.6 13.45 38.55 13.55 38.55 13.65 38.5 13.75 38.5 13.8 38.45 13.85 38.45 13.95 38.4 14.0 38.4 14.1 38.35 14.2 38.35 14.25 38.3 14.3 38.3 14.4 38.25 14.45 38.25 14.55 38.2 14.6 38.2 14.65 38.15 14.75 38.15 14.8 38.1 14.85 38.1 14.9 38.05 15.0 38.05 15.1 38.0 15.2 38.0 15.25 37.95 15.35 37.95 15.4 37.9 15.45 37.9 15.55 37.85 15.65 37.85 15.7 37.8 15.8 37.8 15.85 37.75 15.95 37.75 16.0 37.7 16.05 37.7 16.1 37.65 16.2 37.65 16.25 37.6 16.3 37.6 16.35 37.55 16.45 37.55 16.6 37.5 16.65 37.5 16.7 37.45 16.75 37.45 16.85 37.4 16.9 37.4 16.95 37.4 17.05 37.35 17.1 37.35 17.15 37.3 17.25 37.3 17.3 37.25 17.4 37.25 17.45 37.2 17.5 37.2 17.55 37.15 17.65 37.15 17.7 37.1 17.75 37.1 17.85 37.1 17.9 37.05 17.95 37.05 18.05 37.0 18.1 37.0 18.15 36.95 18.2 36.95 18.3 36.9 18.35 36.9 18.4 36.9 18.5 36.85 18.55 36.8 18.65 36.8 18.75 36.75 18.85 36.75 18.9 36.7 18.95 36.7 19.0 36.65 19.1 36.65 19.15 36.6 19.25 36.6 19.35 36.55 19.4 36.55 19.5 36.5 19.55 36.5 19.6 36.45 19.65 36.45 19.75 36.4 19.8 36.4 19.9 24.0 19.9 19.1 33.65 8.05 33.65 20.05 0.0 M50.85 41.55 L50.85 46.3 53.0 46.3 53.0 42.65 54.6 46.3 56.55 46.3 58.15 42.65 58.15 46.3 60.25 46.3 60.25 41.55 56.9 41.55 55.6 44.45 54.25 41.55 50.85 41.55 M46.4 44.5 L44.55 44.5 45.45 42.8 46.4 44.5 M46.95 45.5 L47.35 46.3 50.05 46.3 46.9 41.55 44.1 41.55 40.95 46.3 43.6 46.3 44.0 45.5 46.95 45.5 M67.3 43.8 Q67.3 47.0 57.45 49.25 47.6 51.55 33.65 51.55 19.7 51.55 9.85 49.25 0.0 47.0 0.0 43.8 0.0 40.6 9.85 38.3 19.7 36.05 33.65 36.05 47.6 36.05 57.45 38.3 67.3 40.6 67.3 43.8 M33.3 41.55 L33.3 46.3 40.4 46.3 40.4 45.2 35.9 45.2 35.9 44.3 39.95 44.3 39.95 43.3 35.9 43.3 35.9 42.55 40.25 42.55 40.25 41.55 33.3 41.55 M24.25 46.3 L26.85 46.3 26.85 44.35 27.1 44.35 27.75 44.5 28.2 44.85 29.6 46.3 32.5 46.3 31.25 44.9 30.9 44.6 30.5 44.35 29.8 44.2 30.7 44.0 31.55 43.55 31.85 42.85 Q31.85 42.4 31.45 42.1 31.05 41.75 30.4 41.65 L28.6 41.55 24.25 41.55 24.25 46.3 M26.85 43.45 L26.85 42.5 28.0 42.5 28.95 42.6 29.25 42.95 29.05 43.25 28.65 43.4 27.95 43.45 26.85 43.45 M15.2 41.55 L15.2 42.7 17.85 42.7 17.85 46.3 20.45 46.3 20.45 42.7 23.05 42.7 23.05 41.55 15.2 41.55 M6.9 44.7 Q7.0 45.45 7.8 45.9 L10.75 46.35 12.8 46.15 14.05 45.6 14.5 44.75 Q14.5 44.35 14.15 44.05 13.8 43.75 13.1 43.5 L10.65 43.1 9.75 42.9 9.6 42.7 9.8 42.45 10.5 42.35 11.35 42.5 Q11.65 42.65 11.75 42.95 L14.2 42.85 Q14.05 42.15 13.2 41.8 L10.75 41.45 8.7 41.65 Q7.95 41.85 7.55 42.15 7.2 42.5 7.2 42.85 7.2 43.4 7.95 43.75 L10.35 44.35 11.65 44.6 11.95 44.95 11.65 45.3 10.8 45.45 9.65 45.15 9.35 44.65 6.9 44.7" fill="#111122" fill-rule="evenodd" stroke="none"/>
  </g>
</svg>
